USFL
nRows=111
nColumns=2
inDegrees=yes
endheader
time	soleus_r	
3.07762	 48.873262	
3.14919	 48.891616	
3.22077	 48.866883	
3.29234	 49.161465	
3.36391	 49.242586	
3.43548	 49.231500	
3.50706	 49.279030	
3.57863	 49.273610	
3.6502	 49.333762	
3.72177	 49.432357	
3.79335	 49.436268	
3.86492	 49.418471	
3.93649	 49.096748	
4.00806	 48.901800	
4.07964	 48.809647	
4.15121	 48.720170	
4.22278	 48.652755	
4.29435	 48.653379	
4.36593	 48.741537	
4.4375	 48.753251	
4.50907	 48.748577	
4.58065	 48.740042	
4.65222	 48.705346	
4.72379	 48.682518	
4.79536	 48.524622	
4.86694	 48.436575	
4.93851	 48.395210	
5.01008	 48.538640	
5.08165	 48.599437	
5.15323	 49.060247	
5.2248	 49.325433	
5.29637	 49.238257	
5.36794	 49.437706	
5.43952	 50.942713	
5.51109	 50.702071	
5.58266	 49.966678	
5.65423	 47.865263	
5.72581	 48.275340	
5.79738	 48.756081	
5.86895	 48.861961	
5.94052	 44.432829	
6.0121	 39.215678	
6.08367	 38.100837	
6.15524	 38.405277	
6.22681	 37.650512	
6.29839	 37.586124	
6.36996	 37.950455	
6.44153	 37.765042	
6.5131	 38.923600	
6.58468	 36.308799	
6.65625	 34.661210	
6.72782	 36.231273	
6.7994	 37.153051	
6.87097	 36.518993	
6.94254	 36.857763	
7.01411	 36.350075	
7.08569	 36.439872	
7.15726	 37.584719	
7.22883	 38.004509	
7.3004	 40.944922	
7.37198	 37.077260	
7.44355	 36.663007	
7.51512	 37.113823	
7.58669	 38.881548	
7.65827	 35.009424	
7.72984	 34.626415	
7.80141	 34.496166	
7.87298	 34.308094	
7.94456	 34.039229	
8.01613	 34.807779	
8.0877	 34.901044	
8.15927	 34.964930	
8.23085	 35.390572	
8.30242	 34.567355	
8.37399	 35.228559	
8.44556	 29.665402	
8.51714	 30.380336	
8.58871	 30.068505	
8.66028	 31.163264	
8.73185	 31.484928	
8.80343	 28.559808	
8.875	 29.370693	
8.94657	 28.605492	
9.01815	 28.747571	
9.08972	 28.849114	
9.16129	 26.566412	
9.23286	 26.750538	
9.30444	 32.567246	
9.37601	 32.208134	
9.44758	 32.154916	
9.51915	 32.575562	
9.59073	 33.855177	
9.6623	 34.184782	
9.73387	 33.619998	
9.80544	 33.905635	
9.87702	 33.931543	
9.94859	 33.941296	
10.0202	 34.018765	
10.0917	 33.807092	
10.1633	 33.895826	
10.2349	 34.202842	
10.3065	 34.193316	
10.378	 34.750850	
10.4496	 34.163293	
10.5212	 34.752129	
10.5927	 37.755312	
10.6643	 37.711632	
10.7359	 37.721241	
10.8075	 38.870799	
10.879	 38.718815	
10.9506	 42.321782	
